{
   "accessors" : [
      {
         "bufferView" : 0,
         "byteOffset" : 0,
         "componentType" : 5123,
         "count" : 12408,
         "max" : [ 2484 ],
         "min" : [ 0 ],
         "name" : "buffer-0-group-0-mesh-0-indices",
         "type" : "SCALAR"
      },
      {
         "bufferView" : 2,
         "byteOffset" : 0,
         "componentType" : 5126,
         "count" : 2485,
         "max" : [ 261.7160949707031, 1022.060180664062, 147.7259979248047 ],
         "min" : [ -204.4087982177734, 0, -150.9273071289062 ],
         "name" : "buffer-0-group-0-mesh-0-position",
         "type" : "VEC3"
      },
      {
         "bufferView" : 2,
         "byteOffset" : 29820,
         "componentType" : 5126,
         "count" : 2485,
         "max" : [ 0.9998999834060669, 0.9997000098228455, 0.9990000128746033 ],
         "min" : [ -0.9998000264167786, -0.9998999834060669, -0.9939000010490417 ],
         "name" : "buffer-0-group-0-mesh-0-normal",
         "type" : "VEC3"
      },
      {
         "bufferView" : 1,
         "byteOffset" : 0,
         "componentType" : 5126,
         "count" : 2485,
         "max" : [ 0.9965999722480774, 0 ],
         "min" : [ 0, -0.9965999722480774 ],
         "name" : "buffer-0-group-0-mesh-0-texcoord",
         "type" : "VEC2"
      },
      {
         "bufferView" : 0,
         "byteOffset" : 24816,
         "componentType" : 5123,
         "count" : 12072,
         "max" : [ 2373 ],
         "min" : [ 0 ],
         "name" : "buffer-0-group-1-mesh-0-indices",
         "type" : "SCALAR"
      },
      {
         "bufferView" : 2,
         "byteOffset" : 59640,
         "componentType" : 5126,
         "count" : 2374,
         "max" : [ 335.3429870605469, 1553.051879882812, 144.1900939941406 ],
         "min" : [ -344.0310974121094, 0, -206.5836944580078 ],
         "name" : "buffer-0-group-1-mesh-0-position",
         "type" : "VEC3"
      },
      {
         "bufferView" : 2,
         "byteOffset" : 88128,
         "componentType" : 5126,
         "count" : 2374,
         "max" : [ 0.9986000061035156, 0.9993000030517578, 0.9990000128746033 ],
         "min" : [ -0.9986000061035156, -0.9987999796867371, -0.9850999712944031 ],
         "name" : "buffer-0-group-1-mesh-0-normal",
         "type" : "VEC3"
      },
      {
         "bufferView" : 1,
         "byteOffset" : 19880,
         "componentType" : 5126,
         "count" : 2374,
         "max" : [ 0.992900013923645, 0 ],
         "min" : [ 0, -0.9969000220298767 ],
         "name" : "buffer-0-group-1-mesh-0-texcoord",
         "type" : "VEC2"
      },
      {
         "bufferView" : 0,
         "byteOffset" : 48960,
         "componentType" : 5123,
         "count" : 13560,
         "max" : [ 2920 ],
         "min" : [ 0 ],
         "name" : "buffer-0-group-2-mesh-0-indices",
         "type" : "SCALAR"
      },
      {
         "bufferView" : 2,
         "byteOffset" : 116616,
         "componentType" : 5126,
         "count" : 2921,
         "max" : [ 283.660400390625, 114.6164016723633, 191.6204071044922 ],
         "min" : [ -179.0238952636719, -0.2137999981641769, -117.9462966918945 ],
         "name" : "buffer-0-group-2-mesh-0-position",
         "type" : "VEC3"
      },
      {
         "bufferView" : 2,
         "byteOffset" : 151668,
         "componentType" : 5126,
         "count" : 2921,
         "max" : [ 0.9998999834060669, 0.9987999796867371, 0.9988999962806702 ],
         "min" : [ -1, -0.9984999895095825, -0.9993000030517578 ],
         "name" : "buffer-0-group-2-mesh-0-normal",
         "type" : "VEC3"
      },
      {
         "bufferView" : 1,
         "byteOffset" : 38872,
         "componentType" : 5126,
         "count" : 2921,
         "max" : [ 0.993399977684021, 0 ],
         "min" : [ 0, -0.993399977684021 ],
         "name" : "buffer-0-group-2-mesh-0-texcoord",
         "type" : "VEC2"
      },
      {
         "bufferView" : 0,
         "byteOffset" : 76080,
         "componentType" : 5123,
         "count" : 13542,
         "max" : [ 4611 ],
         "min" : [ 0 ],
         "name" : "buffer-0-group-3-mesh-0-indices",
         "type" : "SCALAR"
      },
      {
         "bufferView" : 2,
         "byteOffset" : 186720,
         "componentType" : 5126,
         "count" : 4612,
         "max" : [ 74.31259918212891, 1763.509399414062, 109.802001953125 ],
         "min" : [ -99.65229797363281, 0, -107.8322982788086 ],
         "name" : "buffer-0-group-3-mesh-0-position",
         "type" : "VEC3"
      },
      {
         "bufferView" : 2,
         "byteOffset" : 242064,
         "componentType" : 5126,
         "count" : 4612,
         "max" : [ 1, 0.996999979019165, 0.9534000158309937 ],
         "min" : [ -0.9995999932289124, -0.9998999834060669, -0.9998000264167786 ],
         "name" : "buffer-0-group-3-mesh-0-normal",
         "type" : "VEC3"
      },
      {
         "bufferView" : 1,
         "byteOffset" : 62240,
         "componentType" : 5126,
         "count" : 4612,
         "max" : [ 0.9854000210762024, 0 ],
         "min" : [ 0, -0.9995999932289124 ],
         "name" : "buffer-0-group-3-mesh-0-texcoord",
         "type" : "VEC2"
      },
      {
         "bufferView" : 0,
         "byteOffset" : 103164,
         "componentType" : 5123,
         "count" : 58638,
         "max" : [ 10916 ],
         "min" : [ 0 ],
         "name" : "buffer-0-group-4-mesh-0-indices",
         "type" : "SCALAR"
      },
      {
         "bufferView" : 2,
         "byteOffset" : 297408,
         "componentType" : 5126,
         "count" : 10917,
         "max" : [ 339.7811889648438, 1758.781494140625, 143.3222961425781 ],
         "min" : [ -332.4278869628906, 0, -125.7208023071289 ],
         "name" : "buffer-0-group-4-mesh-0-position",
         "type" : "VEC3"
      },
      {
         "bufferView" : 2,
         "byteOffset" : 428412,
         "componentType" : 5126,
         "count" : 10917,
         "max" : [ 0.9998999834060669, 1, 0.9998000264167786 ],
         "min" : [ -1, -0.9998000264167786, -0.9994999766349792 ],
         "name" : "buffer-0-group-4-mesh-0-normal",
         "type" : "VEC3"
      },
      {
         "bufferView" : 1,
         "byteOffset" : 99136,
         "componentType" : 5126,
         "count" : 10917,
         "max" : [ 0.9925000071525574, 0 ],
         "min" : [ 0, -0.9983000159263611 ],
         "name" : "buffer-0-group-4-mesh-0-texcoord",
         "type" : "VEC2"
      }
   ],
   "asset" : {
      "generator" : "Obj2GltfConverter",
      "version" : "2.0"
   },
   "bufferViews" : [
      {
         "buffer" : 0,
         "byteLength" : 220440,
         "byteOffset" : 0,
         "byteStride" : 0,
         "name" : "buffer-0-bufferview-ushort",
         "target" : 34963
      },
      {
         "buffer" : 0,
         "byteLength" : 186472,
         "byteOffset" : 220440,
         "byteStride" : 8,
         "name" : "buffer-0-bufferview-vec2",
         "target" : 34962
      },
      {
         "buffer" : 0,
         "byteLength" : 559416,
         "byteOffset" : 406920,
         "byteStride" : 12,
         "name" : "buffer-0-bufferview-vec3",
         "target" : 34962
      },
      {
         "buffer" : 0,
         "byteLength" : 1,
         "byteOffset" : 0,
         "name" : "buffer-0-bufferview-vec4"
      }
   ],
   "buffers" : [
      {
         "byteLength" : 966336,
         "name" : "buffer-0",
         "uri" : "human_male.bin"
      }
   ],
   "images" : [
      {
         "mimeType" : "image/png",
         "name" : "Bottommat-diffuse-image",
         "uri" : "D:/VirtualSpeech/App/Unity/VS_google_cardboard_v31/Assets/avatars/male_high_res/man1.fbm/man1_Bottom_Diffuse.png"
      },
      {
         "mimeType" : "image/png",
         "name" : "Topmat-diffuse-image",
         "uri" : "D:/VirtualSpeech/App/Unity/VS_google_cardboard_v31/Assets/avatars/male_high_res/man1.fbm/man1_Top_Diffuse.png"
      },
      {
         "mimeType" : "image/png",
         "name" : "Shoesmat-diffuse-image",
         "uri" : "D:/VirtualSpeech/App/Unity/VS_google_cardboard_v31/Assets/avatars/male_high_res/man1.fbm/man1_Shoes_Diffuse.png"
      },
      {
         "mimeType" : "image/png",
         "name" : "Hairmat-diffuse-image",
         "uri" : "D:/VirtualSpeech/App/Unity/VS_google_cardboard_v31/Assets/avatars/male_high_res/man1.fbm/man1_Hair_Diffuse.png"
      },
      {
         "mimeType" : "image/png",
         "name" : "Bodymat-diffuse-image",
         "uri" : "D:/VirtualSpeech/App/Unity/VS_google_cardboard_v31/Assets/avatars/male_high_res/man1.fbm/man1_Body_Diffuse.png"
      }
   ],
   "materials" : [
      {
         "alphaMode" : "OPAQUE",
         "doubleSided" : true,
         "name" : "Bottommat",
         "pbrMetallicRoughness" : {
            "baseColorFactor" : [ 1, 1, 1, 1 ],
            "baseColorTexture" : {
               "index" : 0,
               "texCoord" : 0
            },
            "metallicFactor" : 0,
            "roughnessFactor" : 0.8762441165122401
         }
      },
      {
         "alphaMode" : "OPAQUE",
         "doubleSided" : true,
         "name" : "Topmat",
         "pbrMetallicRoughness" : {
            "baseColorFactor" : [ 1, 1, 1, 1 ],
            "baseColorTexture" : {
               "index" : 1,
               "texCoord" : 0
            },
            "metallicFactor" : 0,
            "roughnessFactor" : 0.8762441165122401
         }
      },
      {
         "alphaMode" : "OPAQUE",
         "doubleSided" : true,
         "name" : "Shoesmat",
         "pbrMetallicRoughness" : {
            "baseColorFactor" : [ 1, 1, 1, 1 ],
            "baseColorTexture" : {
               "index" : 2,
               "texCoord" : 0
            },
            "metallicFactor" : 0,
            "roughnessFactor" : 0.8762441165122401
         }
      },
      {
         "alphaMode" : "OPAQUE",
         "doubleSided" : true,
         "name" : "Hairmat",
         "pbrMetallicRoughness" : {
            "baseColorFactor" : [ 1, 1, 1, 1 ],
            "baseColorTexture" : {
               "index" : 3,
               "texCoord" : 0
            },
            "metallicFactor" : 0,
            "roughnessFactor" : 0.8762441165122401
         }
      },
      {
         "alphaMode" : "OPAQUE",
         "doubleSided" : true,
         "name" : "Bodymat",
         "pbrMetallicRoughness" : {
            "baseColorFactor" : [ 1, 1, 1, 1 ],
            "baseColorTexture" : {
               "index" : 4,
               "texCoord" : 0
            },
            "metallicFactor" : 0,
            "roughnessFactor" : 0.8762441165122401
         }
      }
   ],
   "meshes" : [
      {
         "name" : "buffer-0-mesh-0",
         "primitives" : [
            {
               "attributes" : {
                  "NORMAL" : 2,
                  "POSITION" : 1,
                  "TEXCOORD_0" : 3
               },
               "indices" : 0,
               "material" : 0,
               "mode" : 4
            },
            {
               "attributes" : {
                  "NORMAL" : 6,
                  "POSITION" : 5,
                  "TEXCOORD_0" : 7
               },
               "indices" : 4,
               "material" : 1,
               "mode" : 4
            },
            {
               "attributes" : {
                  "NORMAL" : 10,
                  "POSITION" : 9,
                  "TEXCOORD_0" : 11
               },
               "indices" : 8,
               "material" : 2,
               "mode" : 4
            },
            {
               "attributes" : {
                  "NORMAL" : 14,
                  "POSITION" : 13,
                  "TEXCOORD_0" : 15
               },
               "indices" : 12,
               "material" : 3,
               "mode" : 4
            },
            {
               "attributes" : {
                  "NORMAL" : 18,
                  "POSITION" : 17,
                  "TEXCOORD_0" : 19
               },
               "indices" : 16,
               "material" : 4,
               "mode" : 4
            }
         ]
      }
   ],
   "nodes" : [
      {
         "mesh" : 0,
         "name" : "node-0"
      }
   ],
   "samplers" : [
      {
         "name" : "Bottommat-diffuse-sampler",
         "wrapS" : 10497,
         "wrapT" : 10497
      },
      {
         "name" : "Topmat-diffuse-sampler",
         "wrapS" : 10497,
         "wrapT" : 10497
      },
      {
         "name" : "Shoesmat-diffuse-sampler",
         "wrapS" : 10497,
         "wrapT" : 10497
      },
      {
         "name" : "Hairmat-diffuse-sampler",
         "wrapS" : 10497,
         "wrapT" : 10497
      },
      {
         "name" : "Bodymat-diffuse-sampler",
         "wrapS" : 10497,
         "wrapT" : 10497
      }
   ],
   "scenes" : [
      {
         "name" : "scene-0",
         "nodes" : [ 0 ]
      }
   ],
   "textures" : [
      {
         "name" : "Bottommat-diffuse-texture",
         "sampler" : 0,
         "source" : 0
      },
      {
         "name" : "Topmat-diffuse-texture",
         "sampler" : 1,
         "source" : 1
      },
      {
         "name" : "Shoesmat-diffuse-texture",
         "sampler" : 2,
         "source" : 2
      },
      {
         "name" : "Hairmat-diffuse-texture",
         "sampler" : 3,
         "source" : 3
      },
      {
         "name" : "Bodymat-diffuse-texture",
         "sampler" : 4,
         "source" : 4
      }
   ]
}
